<svg id="Capa_1" enable-background="new 0 0 512 512" height="512" viewBox="0 0 512 512" width="512" xmlns="http://www.w3.org/2000/svg"><g><path d="m333.589 121.723-3.797-44.66h-50.693l6.586 47.537c2.496 18.014-11.499 34.081-29.685 34.081-18.186 0-32.181-16.067-29.685-34.081l6.586-47.537h-50.693l-3.797 44.66c-4.184 49.21-33.242 92.863-77.026 115.712l-28.681 14.968c-24.489 12.78-39.843 38.113-39.843 65.736v145.824c0 26.53 21.507 48.037 48.037 48.037h93.564 163.075 93.564c26.53 0 48.037-21.507 48.037-48.037v-145.824c0-27.623-15.355-52.956-39.843-65.736l-28.681-14.968c-43.783-22.849-72.841-66.502-77.025-115.712z" fill="#26457d"/><g fill="#21386b"><path d="m176.19 137.404c10.647-4.821 36.239-9.663 49.958-11.289.044-.503.097-1.008.168-1.514l6.586-47.537h-50.693c-3.78 41.69-3.433 47.213-6.019 60.34z"/><path d="m439.296 252.403-28.681-14.968c-39.069-20.389-66.396-57.347-74.805-100.032-2.729-13.851-2.427-21.377-6.019-60.341h-50.693c5.209 37.692 6.638 47.737 6.754 49.051.049.006.098.012.147.017 8.206.978 14.69 7.393 15.94 15.562 3.763 24.589 18.166 77.115 76.025 107.309l28.681 14.968c24.489 12.78 39.843 38.113 39.843 65.735v145.826c0 14.595-6.518 27.66-16.791 36.47h1.405c26.53 0 48.037-21.507 48.037-48.037v-145.824c0-27.623-15.355-52.956-39.843-65.736z"/></g><path d="m34.046 137.772v39.9c0 7.345 5.954 13.3 13.3 13.3h87.743c7.345 0 13.3-5.954 13.3-13.3v-20.061c0-21.037 13.853-39.599 34.046-45.499 49.044-14.33 98.088-14.33 147.132 0 20.193 5.9 34.046 24.462 34.046 45.499v20.061c0 7.345 5.954 13.3 13.3 13.3h87.743c7.345 0 13.3-5.954 13.3-13.3v-39.9c0-66.986-49.937-123.715-116.458-131.59-69.618-8.242-141.374-8.242-210.992 0-66.523 7.875-116.46 64.604-116.46 131.59z" fill="#9dc6fb"/><g fill="#80b4fb"><path d="m143.072 112.112c-20.193 5.9-34.046 24.462-34.046 45.499v20.061c0 7.345-5.954 13.3-13.3 13.3h39.362c7.345 0 13.3-5.955 13.3-13.3v-20.061c0-21.037 13.853-39.599 34.046-45.499 17.962-5.248 35.923-8.566 53.885-9.97-31.082-2.43-62.164.888-93.247 9.97z"/><path d="m361.496 6.182c-41.272-4.886-83.294-6.852-125.177-5.944 28.767.623 57.469 2.588 85.815 5.944 66.521 7.875 116.458 64.605 116.458 131.59v39.9c0 7.345-5.954 13.3-13.3 13.3h39.362c7.345 0 13.3-5.955 13.3-13.3v-39.9c0-66.986-49.937-123.715-116.458-131.59z"/></g><path d="m157.994 200.888h-132.272c-8.996 0-16.289-7.293-16.289-16.289 0-8.996 7.293-16.289 16.289-16.289h132.272c8.996 0 16.289 7.293 16.289 16.289.001 8.996-7.292 16.289-16.289 16.289z" fill="#cbe2ff"/><path d="m157.994 168.309h-31.422c8.996 0 16.289 7.293 16.289 16.289s-7.293 16.289-16.289 16.289h31.422c8.996 0 16.289-7.293 16.289-16.289s-7.292-16.289-16.289-16.289z" fill="#bed8fb"/><path d="m486.278 200.888h-132.272c-8.996 0-16.289-7.293-16.289-16.289 0-8.996 7.293-16.289 16.289-16.289h132.272c8.996 0 16.289 7.293 16.289 16.289 0 8.996-7.293 16.289-16.289 16.289z" fill="#cbe2ff"/><path d="m486.278 168.309h-31.422c8.996 0 16.289 7.293 16.289 16.289s-7.293 16.289-16.289 16.289h31.422c8.996 0 16.289-7.293 16.289-16.289s-7.293-16.289-16.289-16.289z" fill="#bed8fb"/><path d="m256 248.915c-58.07 0-105.145 47.075-105.145 105.144s47.075 105.145 105.145 105.145 105.144-47.075 105.144-105.144-47.074-105.145-105.144-105.145zm0 149.138c-24.297 0-43.993-19.696-43.993-43.993s19.696-43.993 43.993-43.993 43.993 19.696 43.993 43.993-19.696 43.993-43.993 43.993z" fill="#f9f6f6"/><g><path d="m256 248.915c-5 0-9.915.357-14.729 1.032 51.095 7.164 90.416 51.043 90.416 104.113s-39.32 96.949-90.416 104.113c4.814.675 9.729 1.032 14.729 1.032 58.07 0 105.144-47.075 105.144-105.144s-47.074-105.146-105.144-105.146z" fill="#dddaec"/></g><g><g><path d="m256 290.66c-4.268 0-7.726-3.459-7.726-7.726v-4.561c0-4.268 3.459-7.726 7.726-7.726s7.726 3.459 7.726 7.726v4.561c0 4.268-3.459 7.726-7.726 7.726z" fill="#80b4fb"/></g><g><path d="m306.293 311.492c-1.977 0-3.955-.755-5.464-2.263-3.017-3.018-3.017-7.909 0-10.928l3.225-3.225c3.018-3.016 7.909-3.016 10.928 0 3.017 3.018 3.017 7.909 0 10.928l-3.225 3.225c-1.509 1.509-3.487 2.263-5.464 2.263z" fill="#80b4fb"/></g><g><path d="m331.687 361.786h-4.56c-4.268 0-7.726-3.459-7.726-7.726s3.459-7.726 7.726-7.726h4.56c4.268 0 7.726 3.459 7.726 7.726s-3.459 7.726-7.726 7.726z" fill="#80b4fb"/></g><g><path d="m309.519 415.305c-1.977 0-3.955-.755-5.464-2.263l-3.225-3.225c-3.017-3.018-3.017-7.909 0-10.928 3.018-3.016 7.909-3.016 10.928 0l3.225 3.225c3.017 3.018 3.017 7.909 0 10.928-1.51 1.509-3.487 2.263-5.464 2.263z" fill="#80b4fb"/></g><g><path d="m256 437.473c-4.268 0-7.726-3.459-7.726-7.726v-4.561c0-4.268 3.459-7.726 7.726-7.726s7.726 3.459 7.726 7.726v4.561c0 4.267-3.459 7.726-7.726 7.726z" fill="#80b4fb"/></g><g><path d="m202.482 415.305c-1.977 0-3.954-.754-5.463-2.263-3.017-3.016-3.018-7.908-.001-10.927l3.224-3.225c3.015-3.018 7.907-3.02 10.927-.001 3.017 3.016 3.018 7.908.001 10.927l-3.224 3.225c-1.509 1.51-3.487 2.264-5.464 2.264z" fill="#80b4fb"/></g><g><path d="m184.874 361.786h-4.56c-4.268 0-7.726-3.459-7.726-7.726s3.459-7.726 7.726-7.726h4.56c4.268 0 7.726 3.459 7.726 7.726s-3.459 7.726-7.726 7.726z" fill="#80b4fb"/></g><g><path d="m205.706 311.492c-1.978 0-3.956-.755-5.464-2.264l-3.224-3.225c-3.017-3.018-3.016-7.91.001-10.927 3.019-3.017 7.911-3.016 10.927.001l3.224 3.225c3.017 3.018 3.016 7.91-.001 10.927-1.509 1.509-3.486 2.263-5.463 2.263z" fill="#80b4fb"/></g></g><g><path d="m336.501 65.697c-.505 0-1.018-.05-1.532-.153-52.4-10.546-105.537-10.546-157.938 0-4.181.845-8.257-1.866-9.099-6.05s1.866-8.257 6.05-9.099c54.423-10.954 109.612-10.954 164.034 0 4.184.842 6.892 4.915 6.05 9.099-.737 3.669-3.962 6.203-7.565 6.203z" fill="#80b4fb"/></g><g><g><path d="m439.38 413.295h-39.264c-4.268 0-7.726-3.459-7.726-7.726s3.459-7.726 7.726-7.726h39.264c4.268 0 7.726 3.459 7.726 7.726s-3.458 7.726-7.726 7.726z" fill="#9dc6fb"/></g><g><path d="m111.884 413.295h-39.265c-4.268 0-7.726-3.459-7.726-7.726s3.459-7.726 7.726-7.726h39.265c4.268 0 7.726 3.459 7.726 7.726s-3.458 7.726-7.726 7.726z" fill="#9dc6fb"/></g></g></g></svg>